<svg id="Layer_1" data-name="Layer 1" xmlns="http://www.w3.org/2000/svg" viewBox="0 0 42.46 39.21"><defs><style>.cls-1{fill:#3c3b3a;}</style></defs><path id="Icon_awesome-bowling-ball" data-name="Icon awesome-bowling-ball" class="cls-1" d="M18.56,1.14A17.44,17.44,0,1,0,36,18.58h0A17.43,17.43,0,0,0,18.57,1.14Zm-9,12.94a2.25,2.25,0,1,1,2.25-2.25,2.25,2.25,0,0,1-2.25,2.25Zm4.5-6.75a2.25,2.25,0,1,1,2.26,2.25h0a2.26,2.26,0,0,1-2.25-2.25Zm3.38,10.12a2.25,2.25,0,1,1,2.25-2.25h0a2.25,2.25,0,0,1-2.25,2.25Z"/></svg>