<svg id="Layer_1" data-name="Layer 1" xmlns="http://www.w3.org/2000/svg" viewBox="0 0 39.33 38.42"><defs><style>.cls-1{fill:#3c3b3a;}</style></defs><path id="Icon_map-climbing" data-name="Icon map-climbing" class="cls-1" d="M5.91,17.28a3.77,3.77,0,0,0-.37,1.62l.14,8.73-3,6.5A2,2,0,0,0,6.1,36l3.33-7.1a1.91,1.91,0,0,0,.16-.53l0-.26,0-5.4L14.7,25l.83,5.28a2,2,0,0,0,2.36,1.48A2,2,0,0,0,19.4,30.1a3.25,3.25,0,0,0,0-.54l-1-6.37a2,2,0,0,0-1.1-1.41l-4.58-2,2.92-5.05,1.44,1.83a1.38,1.38,0,0,0,.56.39l5.5,1.6a1.55,1.55,0,0,0,.92-2.94l-.08,0-4.78-1.4-3.6-4.3a3.72,3.72,0,0,0-2.1-1.11A3.58,3.58,0,0,0,9.92,10.4Zm15.8,12.51-.35,2.62L11.89,34.7,12,36.32h23.1a1.47,1.47,0,0,0,1.48-1.47h0l0-31L33.37,3.1l-1.82,8.16-3,1.27-2.7,7.52,2.57,5.75L27.66,28ZM15.28,8.35a2.94,2.94,0,1,0-2.95-2.93A2.94,2.94,0,0,0,15.28,8.35Zm-5.87.46a.83.83,0,0,0-.3-1.14h0L7.67,6.84a.86.86,0,0,0-1.16.31l-4.4,7.56a.85.85,0,0,0,.31,1.15h0l1.44.82A.84.84,0,0,0,5,16.38Z"/></svg>