<svg id="Layer_1" data-name="Layer 1" xmlns="http://www.w3.org/2000/svg" viewBox="0 0 39.78 38.07"><defs><style>.cls-1{fill:#3c3b3a;}</style></defs><path id="Icon_map-gym" data-name="Icon map-gym" class="cls-1" d="M14.37,33.94a.72.72,0,0,1,0,1l-1.56,1.46a.72.72,0,0,1-1,0l-9.1-9.81a.72.72,0,0,1,0-1l1.57-1.46a.72.72,0,0,1,1,0ZM26,15.47a.72.72,0,0,1,0,1l-9.84,9.2a.71.71,0,0,1-1,0l-2.35-2.54a.72.72,0,0,1,0-1l9.84-9.19a.72.72,0,0,1,1,0h0ZM17.72,30.81a.72.72,0,0,1,0,1l-1.56,1.46a.72.72,0,0,1-1,0L6,23.44a.72.72,0,0,1,0-1L7.6,21a.7.7,0,0,1,1,0Zm15.16-15a.72.72,0,0,1,0,1l-1.57,1.47a.71.71,0,0,1-1,0l-9.1-9.81a.72.72,0,0,1,0-1L22.77,6a.72.72,0,0,1,1,0h0l9.1,9.81Zm3.35-3.12a.72.72,0,0,1,0,1l-1.56,1.46a.72.72,0,0,1-1,0h0l-9.1-9.81a.72.72,0,0,1,0-1l1.56-1.46a.71.71,0,0,1,1,0h0Z"/></svg>