<svg id="Layer_1" data-name="Layer 1" xmlns="http://www.w3.org/2000/svg" viewBox="0 0 41.23 41.01"><defs><style>.cls-1{fill:#3c3b3a;}</style></defs><path id="Icon_awesome-basketball-ball" data-name="Icon awesome-basketball-ball" class="cls-1" d="M18,2.23A17.26,17.26,0,0,0,9.42,6l5.45,5.44A15.73,15.73,0,0,0,18,2.23Zm2.51,14.88L31.63,6A17.46,17.46,0,0,0,21.4,2.06a19,19,0,0,1-4.13,11.8ZM7,8.4A17.4,17.4,0,0,0,3.25,17a15.65,15.65,0,0,0,9.23-3.15ZM26.17,22.76A19,19,0,0,1,38,18.63,17.36,17.36,0,0,0,34,8.4L22.92,19.5l3.25,3.26Zm-5.64-.87L9.43,33a17.41,17.41,0,0,0,10.23,3.95,19,19,0,0,1,4.12-11.79ZM34,30.6A17.31,17.31,0,0,0,37.8,22a15.73,15.73,0,0,0-9.22,3.15ZM14.88,16.25A18.92,18.92,0,0,1,3.09,20.37,17.4,17.4,0,0,0,7,30.6L18.14,19.5ZM23,36.78A17.37,17.37,0,0,0,31.63,33l-5.44-5.44A15.72,15.72,0,0,0,23,36.78Z"/></svg>